<svg width="20" height="20" viewBox="0 0 20 20" fill="none" xmlns="http://www.w3.org/2000/svg">
  <path d="M19.0002 19L14.6572 14.657M14.6572 14.657C15.4001 13.9141 15.9894 13.0322 16.3893 12.0616C16.7892 11.0909 16.9921 10.0508 16.9921 9.00021C16.9921 7.94962 16.7892 6.90951 16.3893 5.93886C15.9894 4.9682 15.4001 4.08626 14.6572 3.34339C13.9144 2.60051 13.0324 2.01125 12.0618 1.61133C11.0911 1.21141 10.051 1.00849 9.00044 1.00849C7.94984 1.00849 6.90973 1.21141 5.93908 1.61133C4.96843 2.01125 4.08648 2.60051 3.34361 3.34339C1.84287 4.84414 1.00879 6.87842 1.00879 9.00021C1.00879 11.122 1.84287 13.1563 3.34361 14.657C4.84436 16.1578 6.87865 16.9919 9.00044 16.9919C11.1222 16.9919 13.1565 16.1578 14.6572 14.657Z" stroke="white" stroke-width="2" stroke-linecap="round" stroke-linejoin="round"/>
</svg> 